<?xml version="1.0" encoding="UTF-8"?>
<svg width="800" height="800" viewBox="0 0 800 800" xmlns="http://www.w3.org/2000/svg">
    <rect width="800" height="800" fill="#FFFFFF"/>
    <!-- Monture sportive -->
    <path d="M250 400 C250 350, 350 300, 450 300 C550 300, 650 350, 650 400 C650 450, 550 500, 450 500 C350 500, 250 450, 250 400" 
          fill="none" stroke="#000000" stroke-width="10"/>
    <!-- Branches -->
    <path d="M250 400 L200 380" fill="none" stroke="#000000" stroke-width="10"/>
    <path d="M650 400 L700 380" fill="none" stroke="#000000" stroke-width="10"/>
    <!-- Verres -->
    <path d="M300 400 C300 350, 350 300, 400 300 C450 300, 500 350, 500 400 C500 450, 450 500, 400 500 C350 500, 300 450, 300 400" 
          fill="#87CEEB" fill-opacity="0.3"/>
</svg> 